<svg id="Layer_1" xmlns="http://www.w3.org/2000/svg" viewBox="0 0 1024 54.04"><defs><style>.cls-1{fill:#c40a0a;}.cls-2{fill:#870000;}</style></defs><rect class="cls-2" y="40.07" width="8.5" height="1.29" rx=".64" ry=".64"/><rect class="cls-2" x="91.2" y="40.07" width="4.8" height="1.29" rx=".64" ry=".64"/><g><path class="cls-1" d="M54.45,5.09l-1.57-2.72c-.04-.07-.14-.07-.18,0l-1.57,2.72c-.04,.07,.01,.16,.09,.16l.63-.28v6.55h-.03c-.17,1.93-1.45,3.6-3.3,4.26l-.62,.22V2.71l.51,.23c.08,0,.13-.09,.09-.16L46.91,.05c-.04-.07-.14-.07-.18,0l-1.57,2.72c-.04,.07,.01,.16,.09,.16l.6-.27V15.99l-.62-.22c-1.99-.7-3.32-2.58-3.32-4.68V6.68s0-.03,0-.05v-.2h0v-1.44l.54,.24c.08,0,.13-.09,.09-.16l-1.57-2.72c-.04-.07-.14-.07-.18,0l-1.57,2.72c-.04,.07,.01,.16,.09,.16l.61-.27v6.12c0,.94,.18,1.84,.54,2.7,.35,.83,.86,1.57,1.5,2.22,.64,.64,1.39,1.14,2.22,1.5,.56,.24,1.14,.4,1.74,.48v2.57h1.93v-2.57c.6-.08,1.18-.24,1.74-.48,.83-.35,1.57-.86,2.22-1.5s1.14-1.39,1.5-2.22c.36-.86,.55-1.77,.55-2.7V5.01l.53,.24c.08,0,.13-.09,.09-.16Z"/><path class="cls-1" d="M45.9,53.09c0,.52,.42,.94,.94,.94h.04c.52,0,.94-.42,.94-.94v-5.59h-1.93v5.59Z"/></g><g><path d="M17.95,21.96c2.2,0,3.94,.51,5.06,1.54,1.01,.94,1.61,2.16,1.61,3.96,0,2.22-.83,3.83-2.18,4.9-1.32,1.03-2.9,1.52-4.75,1.52h-5.06v-.29c1.3-.22,1.47-.33,1.47-1.98v-7.37c0-1.65-.17-1.76-1.47-1.98v-.29h5.32Zm-1.58,9.28c.02,1.5,.5,2.13,2.07,2.13,2.37,0,3.61-1.82,3.61-5.59,0-1.87-.53-3.43-1.45-4.33-.73-.75-1.63-1.05-2.84-1.05-.73,0-1.06,.13-1.25,.28s-.2,.46-.2,1.08l.06,7.48Z"/><path d="M32.31,31.83c-.07,.46-.3,1.74-.38,2.06h-6.39v-.21c1.13-.16,1.22-.22,1.22-1.39v-5.32c0-1.18-.07-1.28-1-1.39v-.21h3.97c1.28,0,1.79-.01,1.9-.03,.01,.5,.07,1.34,.13,1.9l-.21,.04c-.1-.33-.28-.81-.56-1.15-.24-.29-.52-.37-1.3-.37h-.98c-.28,0-.33,.05-.33,.31v3.13h1.27c1.03,0,1.07-.29,1.26-1.1h.21v2.59h-.21c-.18-.77-.22-1.1-1.26-1.1h-1.27v2.79c0,.92,.2,1.09,1.01,1.1h.77c.77,0,.96-.1,1.28-.46,.24-.26,.45-.71,.67-1.24l.2,.04Z"/><path d="M45.73,33.88v-.29c1.32-.26,1.41-.39,1.43-2.31l.06-7.59c-1.39,3.25-4.05,9.41-4.35,10.2h-.28c-.33-.86-2.68-6.68-4.02-9.9-.26,5.59-.29,7.78-.28,8.38,.04,.81,.44,1.01,1.85,1.23v.29h-4.31v-.29c1.28-.18,1.54-.5,1.65-1.19,.09-.61,.17-1.6,.61-8.86,.02-.44-.15-1.12-1.72-1.28v-.29h3.63l3.72,8.47,3.8-8.47h3.47v.29c-1.52,.28-1.65,.4-1.63,2.13l.07,6.9c.02,1.83,.09,2.04,1.56,2.31v.29h-5.26Z"/><path d="M56.25,25.19c2.32,0,4.26,1.82,4.26,4.36,0,2.74-1.93,4.53-4.3,4.53-2.54,0-4.35-1.97-4.35-4.39,0-2.24,1.62-4.51,4.39-4.51Zm-.26,.33c-1.28,0-2.25,1.28-2.25,3.88,0,2.45,1,4.36,2.7,4.36,1.31,0,2.2-1.32,2.2-3.86,0-2.74-1.03-4.38-2.65-4.38Z"/><path d="M70.27,25.58c-.86,.18-1.06,.33-1.09,1.22-.01,.41-.04,.73-.04,2.1v5.17h-.33l-5.88-7.07v3.35c0,1.22,.01,1.6,.04,2.03,.05,.89,.13,1.13,1.35,1.3v.21h-3.03v-.21c.98-.14,1.09-.34,1.14-1.26,.03-.47,.07-.98,.07-2.07v-3.43c0-.28-.08-.52-.21-.69-.34-.46-.58-.55-1.15-.64v-.21h2.5l5.08,5.93v-2.41c0-1.36-.04-1.7-.05-2.07-.04-.92-.34-1.1-1.48-1.24v-.21h3.08v.21Z"/><path d="M79.78,25.58c-.86,.18-1.06,.33-1.09,1.22-.01,.41-.04,.73-.04,2.1v5.17h-.33l-5.88-7.07v3.35c0,1.22,.01,1.6,.04,2.03,.05,.89,.13,1.13,1.35,1.3v.21h-3.03v-.21c.98-.14,1.09-.34,1.14-1.26,.03-.47,.07-.98,.07-2.07v-3.43c0-.28-.08-.52-.21-.69-.34-.46-.58-.55-1.15-.64v-.21h2.5l5.08,5.93v-2.41c0-1.36-.04-1.7-.05-2.07-.04-.92-.34-1.1-1.48-1.24v-.21h3.08v.21Z"/><path d="M87.07,31.83c-.07,.46-.3,1.74-.38,2.06h-6.39v-.21c1.13-.16,1.22-.22,1.22-1.39v-5.32c0-1.18-.07-1.28-1-1.39v-.21h3.97c1.28,0,1.79-.01,1.9-.03,.01,.5,.07,1.34,.13,1.9l-.21,.04c-.1-.33-.28-.81-.56-1.15-.24-.29-.52-.37-1.3-.37h-.98c-.28,0-.33,.05-.33,.31v3.13h1.27c1.03,0,1.07-.29,1.26-1.1h.21v2.59h-.21c-.18-.77-.22-1.1-1.26-1.1h-1.27v2.79c0,.92,.2,1.09,1.01,1.1h.77c.77,0,.96-.1,1.28-.46,.24-.26,.45-.71,.67-1.24l.2,.04Z"/></g><g><path class="cls-2" d="M15.6,38.81c-.12-.37-.22-.68-.41-.97-.25-.45-.45-.55-1.18-.55h-1.4c-.38,0-.42,.04-.42,.42v3.03h1.62c.94,0,1.01-.16,1.21-1.07h.39v2.74h-.41c-.17-.92-.26-1.13-1.19-1.13h-1.62v2.34c0,1.14,.13,1.19,1.32,1.3v.37h-3.64v-.37c1.06-.08,1.18-.17,1.18-1.3v-5.19c0-1.14-.13-1.19-1.18-1.3v-.37h4.15c1.18,0,1.62-.01,1.85-.03,.01,.47,.07,1.39,.13,2.02l-.41,.05Z"/><path class="cls-2" d="M18.43,45.28v-.37c1.07-.12,1.18-.17,1.18-1.28v-5.2c0-1.13-.1-1.18-1.18-1.3v-.37h3.51v.37c-1.09,.12-1.19,.17-1.19,1.3v5.2c0,1.13,.1,1.17,1.19,1.28v.37h-3.51Z"/><path class="cls-2" d="M33.63,37.13c-.84,.09-1.11,.22-1.15,.83-.01,.42-.04,.97-.04,2.19v5.25h-.5l-5.61-6.85v3.28c0,1.18,.04,1.77,.07,2.15,.03,.67,.35,.86,1.3,.94v.37h-3.18v-.37c.81-.07,1.13-.26,1.18-.9,.04-.42,.07-1.01,.07-2.2v-3.34c0-.37-.03-.58-.26-.86-.25-.33-.52-.41-1.17-.47v-.37h1.97l5.55,6.59v-3.21c0-1.22-.03-1.78-.07-2.17-.04-.59-.34-.77-1.39-.84v-.37h3.24v.37Z"/><path class="cls-2" d="M40.47,45.28v-.37c.85-.1,.96-.24,.77-.73-.17-.51-.43-1.17-.71-1.99h-2.83c-.21,.59-.41,1.1-.59,1.64-.29,.85-.1,.96,.97,1.09v.37h-3.03v-.37c.83-.1,1.03-.2,1.49-1.38l2.71-6.88,.42-.08c.83,2.24,1.73,4.72,2.55,6.98,.42,1.14,.54,1.24,1.47,1.35v.37h-3.24Zm-1.31-6.98c-.42,1.13-.86,2.32-1.26,3.35h2.45l-1.19-3.35Z"/><path class="cls-2" d="M54.59,37.13c-.84,.09-1.11,.22-1.15,.83-.01,.42-.04,.97-.04,2.19v5.25h-.5l-5.61-6.85v3.28c0,1.18,.04,1.77,.07,2.15,.03,.67,.35,.86,1.3,.94v.37h-3.18v-.37c.81-.07,1.13-.26,1.18-.9,.04-.42,.07-1.01,.07-2.2v-3.34c0-.37-.03-.58-.26-.86-.25-.33-.52-.41-1.17-.47v-.37h1.97l5.55,6.59v-3.21c0-1.22-.03-1.78-.07-2.17-.04-.59-.34-.77-1.39-.84v-.37h3.24v.37Z"/><path class="cls-2" d="M64.77,43.18c-.18,.63-.52,1.57-.72,1.98-.38,.08-1.4,.31-2.4,.31-3.13,0-4.73-2.08-4.73-4.38,0-2.67,2.03-4.52,4.97-4.52,1.13,0,2.04,.24,2.48,.3,.05,.59,.14,1.38,.25,2.03l-.41,.09c-.26-.88-.58-1.41-1.24-1.69-.34-.16-.88-.25-1.38-.25-2.16,0-3.3,1.6-3.3,3.76,0,2.53,1.31,4.15,3.43,4.15,1.34,0,1.99-.62,2.66-1.93l.39,.13Z"/><path class="cls-2" d="M67.34,45.28v-.37c1.07-.12,1.18-.17,1.18-1.28v-5.2c0-1.13-.1-1.18-1.18-1.3v-.37h3.51v.37c-1.09,.12-1.19,.17-1.19,1.3v5.2c0,1.13,.1,1.17,1.19,1.28v.37h-3.51Z"/><path class="cls-2" d="M78.1,45.28v-.37c.85-.1,.96-.24,.77-.73-.17-.51-.43-1.17-.71-1.99h-2.83c-.21,.59-.41,1.1-.59,1.64-.29,.85-.1,.96,.97,1.09v.37h-3.03v-.37c.83-.1,1.03-.2,1.49-1.38l2.71-6.88,.42-.08c.83,2.24,1.73,4.72,2.55,6.98,.42,1.14,.54,1.24,1.47,1.35v.37h-3.24Zm-1.31-6.98c-.42,1.13-.86,2.32-1.26,3.35h2.45l-1.19-3.35Z"/><path class="cls-2" d="M89.75,43.11c-.08,.41-.47,1.77-.6,2.17h-6.09v-.37c1.19-.12,1.3-.18,1.3-1.3v-5.2c0-1.11-.13-1.18-1.18-1.28v-.37h3.51v.37c-1.05,.1-1.19,.16-1.19,1.28v5.33c0,.8,.1,.98,.85,1,.01,0,.96,.01,1.03,.01,.67,0,.86-.08,1.17-.41,.33-.34,.6-.86,.8-1.35l.41,.1Z"/></g><g><path d="M14.67,57.74c.25-.04,.58-.08,1-.08,.52,0,.89,.12,1.13,.33,.22,.19,.35,.49,.35,.85s-.11,.65-.31,.86c-.28,.29-.73,.44-1.23,.44-.16,0-.3,0-.42-.04v1.62h-.52v-3.99Zm.52,1.95c.11,.03,.26,.04,.43,.04,.63,0,1.01-.31,1.01-.86s-.38-.79-.95-.79c-.23,0-.4,.02-.49,.04v1.57Z"/><path d="M19.3,61.73l-.04-.37h-.02c-.16,.23-.47,.43-.89,.43-.59,0-.89-.41-.89-.83,0-.7,.62-1.08,1.75-1.08v-.06c0-.24-.07-.67-.66-.67-.27,0-.55,.08-.76,.22l-.12-.35c.24-.16,.59-.26,.95-.26,.89,0,1.1,.61,1.1,1.19v1.09c0,.25,.01,.5,.05,.7h-.48Zm-.08-1.48c-.58-.01-1.23,.09-1.23,.65,0,.34,.23,.5,.5,.5,.38,0,.62-.24,.7-.49,.02-.05,.03-.11,.03-.17v-.5Z"/><path d="M20.51,61.19c.16,.1,.43,.21,.7,.21,.38,0,.56-.19,.56-.43s-.15-.39-.54-.53c-.52-.19-.77-.47-.77-.82,0-.47,.38-.85,1-.85,.29,0,.55,.08,.71,.18l-.13,.38c-.11-.07-.32-.17-.59-.17-.31,0-.49,.18-.49,.4,0,.24,.17,.35,.55,.49,.5,.19,.76,.44,.76,.88,0,.51-.4,.87-1.09,.87-.32,0-.61-.08-.82-.2l.13-.4Z"/><path d="M22.89,61.19c.16,.1,.43,.21,.7,.21,.38,0,.56-.19,.56-.43s-.15-.39-.54-.53c-.52-.19-.77-.47-.77-.82,0-.47,.38-.85,1-.85,.29,0,.55,.08,.71,.18l-.13,.38c-.11-.07-.32-.17-.59-.17-.31,0-.49,.18-.49,.4,0,.24,.17,.35,.55,.49,.5,.19,.76,.44,.76,.88,0,.51-.4,.87-1.09,.87-.32,0-.61-.08-.82-.2l.13-.4Z"/><path d="M25.54,58.83l.38,1.48c.08,.32,.16,.62,.22,.92h.02c.07-.29,.16-.61,.26-.92l.47-1.48h.44l.45,1.45c.11,.35,.19,.65,.26,.95h.02c.05-.29,.13-.6,.22-.94l.41-1.46h.52l-.94,2.9h-.48l-.44-1.38c-.1-.32-.19-.61-.26-.95h-.01c-.07,.35-.16,.65-.26,.96l-.47,1.38h-.48l-.88-2.9h.54Z"/><path d="M32.32,60.26c0,1.07-.74,1.54-1.45,1.54-.79,0-1.39-.58-1.39-1.49,0-.97,.64-1.54,1.44-1.54s1.4,.61,1.4,1.49Zm-2.3,.03c0,.64,.37,1.12,.88,1.12s.88-.47,.88-1.13c0-.49-.25-1.12-.87-1.12s-.89,.58-.89,1.13Z"/><path d="M32.98,59.74c0-.34,0-.64-.02-.91h.46l.02,.57h.02c.13-.39,.45-.64,.8-.64,.06,0,.1,0,.15,.02v.5c-.05-.01-.11-.02-.18-.02-.37,0-.64,.28-.71,.68-.01,.07-.02,.16-.02,.25v1.55h-.52v-2Z"/><path d="M37.39,57.47v3.51c0,.26,0,.55,.02,.75h-.47l-.02-.5h-.01c-.16,.32-.52,.57-.99,.57-.7,0-1.24-.59-1.24-1.48,0-.97,.59-1.56,1.3-1.56,.44,0,.74,.21,.88,.44h.01v-1.73h.53Zm-.53,2.54c0-.07,0-.16-.02-.22-.08-.33-.37-.61-.76-.61-.55,0-.87,.48-.87,1.12,0,.59,.29,1.07,.86,1.07,.35,0,.68-.23,.77-.63,.02-.07,.02-.14,.02-.23v-.5Z"/><path d="M38.14,59.31c0-.22,.15-.38,.36-.38s.35,.16,.35,.38c0,.21-.14,.37-.36,.37-.21,0-.35-.16-.35-.37Zm0,2.12c0-.22,.15-.38,.36-.38s.35,.16,.35,.38c0,.21-.14,.37-.36,.37-.21,0-.35-.16-.35-.37Z"/><path d="M43.29,57.47v3.51c0,.26,0,.55,.02,.75h-.47l-.02-.5h-.01c-.16,.32-.52,.57-.99,.57-.7,0-1.24-.59-1.24-1.48,0-.97,.59-1.56,1.3-1.56,.44,0,.74,.21,.88,.44h.01v-1.73h.53Zm-.53,2.54c0-.07,0-.16-.02-.22-.08-.33-.37-.61-.76-.61-.55,0-.87,.48-.87,1.12,0,.59,.29,1.07,.86,1.07,.35,0,.68-.23,.77-.63,.02-.07,.02-.14,.02-.23v-.5Z"/><path d="M44.13,61.13c.15,.1,.5,.25,.86,.25,.68,0,.89-.43,.88-.76,0-.55-.5-.78-1.01-.78h-.29v-.4h.29c.38,0,.87-.2,.87-.66,0-.31-.2-.59-.68-.59-.31,0-.61,.14-.78,.26l-.14-.38c.2-.15,.6-.3,1.02-.3,.77,0,1.12,.46,1.12,.93,0,.4-.24,.74-.72,.92h0c.48,.11,.87,.47,.87,1.01,0,.62-.49,1.17-1.42,1.17-.44,0-.82-.14-1.01-.26l.14-.41Z"/><path d="M48.71,61.73v-1.06h-1.81v-.35l1.74-2.49h.57v2.42h.55v.41h-.55v1.06h-.5Zm0-1.48v-1.3c0-.2,0-.41,.02-.61h-.02c-.12,.23-.22,.4-.32,.58l-.95,1.33h1.28Z"/><path d="M50.34,57.74c.32-.05,.7-.08,1.11-.08,.75,0,1.28,.17,1.64,.5,.36,.33,.57,.8,.57,1.45s-.2,1.2-.58,1.57c-.38,.38-1,.58-1.79,.58-.37,0-.68-.02-.95-.05v-3.98Zm.52,3.57c.13,.02,.32,.03,.53,.03,1.12,0,1.72-.62,1.72-1.71,0-.95-.53-1.56-1.64-1.56-.27,0-.47,.02-.61,.05v3.19Z"/><path d="M54.34,57.69h2.18v.44h-1.66v1.34h1.53v.43h-1.53v1.83h-.52v-4.04Z"/><path d="M58.71,61.73v-1.06h-1.81v-.35l1.74-2.49h.57v2.42h.55v.41h-.55v1.06h-.5Zm0-1.48v-1.3c0-.2,0-.41,.02-.61h-.02c-.12,.23-.22,.4-.32,.58l-.95,1.33h1.28Z"/><path d="M62.39,61.62c-.14,.07-.44,.17-.83,.17-.88,0-1.45-.59-1.45-1.48s.61-1.54,1.56-1.54c.31,0,.59,.08,.73,.15l-.12,.41c-.13-.07-.32-.14-.61-.14-.67,0-1.03,.49-1.03,1.1,0,.67,.43,1.09,1.01,1.09,.3,0,.5-.08,.65-.14l.09,.4Z"/><path d="M62.97,61.13c.15,.1,.5,.25,.86,.25,.68,0,.89-.43,.88-.76,0-.55-.5-.78-1.01-.78h-.29v-.4h.29c.38,0,.87-.2,.87-.66,0-.31-.2-.59-.68-.59-.31,0-.61,.14-.78,.26l-.14-.38c.2-.15,.6-.3,1.02-.3,.77,0,1.12,.46,1.12,.93,0,.4-.24,.74-.72,.92h0c.48,.11,.87,.47,.87,1.01,0,.62-.49,1.17-1.42,1.17-.44,0-.82-.14-1.01-.26l.14-.41Z"/><path d="M67.55,61.73v-1.06h-1.81v-.35l1.74-2.49h.57v2.42h.55v.41h-.55v1.06h-.5Zm0-1.48v-1.3c0-.2,0-.41,.02-.61h-.02c-.12,.23-.22,.4-.32,.58l-.95,1.33h1.28Z"/><path d="M71.27,59.84h-1.57v1.46h1.75v.44h-2.27v-4.04h2.18v.44h-1.66v1.28h1.57v.43Z"/><path d="M72.28,58.83l.57,1.63c.1,.26,.17,.5,.23,.74h.02c.07-.24,.15-.48,.25-.74l.56-1.63h.55l-1.14,2.9h-.5l-1.1-2.9h.56Z"/><path d="M75.19,60.38c.01,.71,.47,1.01,1,1.01,.38,0,.61-.07,.8-.15l.09,.38c-.19,.08-.5,.18-.96,.18-.89,0-1.43-.59-1.43-1.46s.52-1.57,1.36-1.57c.95,0,1.2,.83,1.2,1.37,0,.11-.01,.19-.02,.25h-2.04Zm1.55-.38c0-.34-.14-.86-.73-.86-.53,0-.77,.49-.81,.86h1.54Z"/><path d="M77.92,57.74c.26-.05,.64-.08,1-.08,.56,0,.92,.1,1.17,.33,.2,.18,.32,.46,.32,.77,0,.53-.34,.89-.76,1.03v.02c.31,.11,.5,.4,.59,.82,.13,.56,.23,.95,.31,1.11h-.54c-.07-.11-.16-.46-.27-.97-.12-.56-.33-.77-.81-.79h-.49v1.75h-.52v-3.99Zm.52,1.84h.53c.56,0,.91-.31,.91-.77,0-.52-.38-.75-.93-.76-.25,0-.43,.02-.52,.05v1.48Z"/><path d="M82,62.25v-.61c-.35,0-.71-.11-.92-.26l.14-.4c.22,.14,.53,.26,.86,.26,.43,0,.71-.25,.71-.59s-.23-.53-.68-.71c-.61-.24-.99-.52-.99-1.04s.35-.88,.91-.96v-.61h.37v.58c.36,.01,.61,.11,.78,.21l-.15,.4c-.13-.07-.37-.2-.76-.2-.46,0-.64,.28-.64,.52,0,.31,.22,.47,.74,.68,.62,.25,.93,.56,.93,1.1,0,.47-.33,.92-.95,1.02v.62h-.38Z"/></g></svg>